<svg xmlns="http://www.w3.org/2000/svg" xmlns:xlink="http://www.w3.org/1999/xlink" width="2000" zoomAndPan="magnify" viewBox="0 0 1500 1499.999933" height="2000" preserveAspectRatio="xMidYMid meet" version="1.0"><defs><clipPath id="dc10f293c3"><path d="M 469.007812 792 L 538 792 L 538 861 L 469.007812 861 Z M 469.007812 792 " clip-rule="nonzero"/></clipPath><clipPath id="25679e276a"><path d="M 469.007812 639 L 538 639 L 538 708 L 469.007812 708 Z M 469.007812 639 " clip-rule="nonzero"/></clipPath><clipPath id="03f907a745"><path d="M 962 792 L 1030.757812 792 L 1030.757812 861 L 962 861 Z M 962 792 " clip-rule="nonzero"/></clipPath><clipPath id="f5917e727a"><path d="M 792 962 L 861 962 L 861 1030.519531 L 792 1030.519531 Z M 792 962 " clip-rule="nonzero"/></clipPath><clipPath id="e0a7a80ac8"><path d="M 639 962 L 708 962 L 708 1030.519531 L 639 1030.519531 Z M 639 962 " clip-rule="nonzero"/></clipPath><clipPath id="4f9bd667ac"><path d="M 792 469.519531 L 861 469.519531 L 861 538 L 792 538 Z M 792 469.519531 " clip-rule="nonzero"/></clipPath><clipPath id="1695cd3281"><path d="M 639 469.519531 L 708 469.519531 L 708 538 L 639 538 Z M 639 469.519531 " clip-rule="nonzero"/></clipPath><clipPath id="bbccbe53a8"><path d="M 962 639 L 1030.757812 639 L 1030.757812 708 L 962 708 Z M 962 639 " clip-rule="nonzero"/></clipPath></defs><path fill="#5271ff" d="M 902.332031 792.609375 L 852.59375 792.609375 C 850.628906 792.605469 848.667969 792.703125 846.710938 792.894531 C 844.757812 793.085938 842.816406 793.375 840.890625 793.757812 C 838.960938 794.140625 837.058594 794.617188 835.179688 795.1875 C 833.296875 795.757812 831.449219 796.417969 829.636719 797.167969 C 827.820312 797.921875 826.046875 798.757812 824.3125 799.683594 C 822.578125 800.609375 820.898438 801.621094 819.261719 802.710938 C 817.628906 803.800781 816.054688 804.972656 814.535156 806.21875 C 813.015625 807.464844 811.5625 808.78125 810.171875 810.171875 C 808.78125 811.558594 807.464844 813.011719 806.21875 814.53125 C 804.972656 816.050781 803.800781 817.625 802.710938 819.257812 C 801.617188 820.894531 800.609375 822.578125 799.683594 824.308594 C 798.757812 826.042969 797.917969 827.816406 797.167969 829.628906 C 796.414062 831.445312 795.753906 833.292969 795.183594 835.171875 C 794.613281 837.054688 794.136719 838.957031 793.753906 840.882812 C 793.367188 842.808594 793.082031 844.75 792.886719 846.707031 C 792.695312 848.660156 792.601562 850.621094 792.601562 852.585938 L 792.601562 901.78125 C 792.601562 902.894531 792.652344 904.003906 792.761719 905.109375 C 792.871094 906.214844 793.035156 907.3125 793.253906 908.40625 C 793.46875 909.496094 793.738281 910.574219 794.0625 911.636719 C 794.382812 912.699219 794.757812 913.746094 795.183594 914.773438 C 795.609375 915.800781 796.085938 916.804688 796.609375 917.785156 C 797.132812 918.765625 797.703125 919.71875 798.320312 920.644531 C 798.9375 921.566406 799.601562 922.460938 800.304688 923.320312 C 801.011719 924.179688 801.757812 925 802.542969 925.789062 C 803.328125 926.574219 804.152344 927.320312 805.011719 928.023438 C 805.871094 928.730469 806.765625 929.390625 807.6875 930.011719 C 808.613281 930.628906 809.566406 931.199219 810.546875 931.722656 C 811.527344 932.246094 812.53125 932.722656 813.558594 933.148438 C 814.585938 933.574219 815.628906 933.945312 816.695312 934.269531 C 817.757812 934.59375 818.835938 934.863281 819.925781 935.078125 C 821.015625 935.296875 822.117188 935.460938 823.222656 935.566406 C 824.328125 935.675781 825.4375 935.730469 826.550781 935.730469 C 827.660156 935.730469 828.769531 935.675781 829.878906 935.566406 C 830.984375 935.460938 832.082031 935.296875 833.171875 935.078125 C 834.265625 934.863281 835.339844 934.59375 836.40625 934.269531 C 837.46875 933.945312 838.515625 933.574219 839.542969 933.148438 C 840.570312 932.722656 841.574219 932.246094 842.554688 931.722656 C 843.535156 931.199219 844.488281 930.628906 845.410156 930.007812 C 846.335938 929.390625 847.226562 928.730469 848.089844 928.023438 C 848.949219 927.320312 849.769531 926.574219 850.554688 925.789062 C 851.34375 925 852.089844 924.179688 852.792969 923.320312 C 853.5 922.460938 854.160156 921.566406 854.777344 920.644531 C 855.394531 919.71875 855.96875 918.765625 856.492188 917.785156 C 857.015625 916.804688 857.492188 915.800781 857.914062 914.773438 C 858.339844 913.746094 858.714844 912.699219 859.039062 911.636719 C 859.359375 910.574219 859.632812 909.496094 859.847656 908.40625 C 860.066406 907.3125 860.226562 906.214844 860.335938 905.109375 C 860.445312 904.003906 860.5 902.894531 860.5 901.78125 L 860.5 860.507812 L 902.332031 860.507812 C 903.445312 860.507812 904.554688 860.453125 905.660156 860.34375 C 906.765625 860.234375 907.867188 860.074219 908.957031 859.855469 C 910.046875 859.640625 911.125 859.367188 912.1875 859.046875 C 913.25 858.722656 914.296875 858.347656 915.324219 857.921875 C 916.351562 857.5 917.355469 857.023438 918.335938 856.5 C 919.316406 855.976562 920.269531 855.402344 921.195312 854.785156 C 922.117188 854.167969 923.011719 853.507812 923.871094 852.800781 C 924.730469 852.097656 925.554688 851.351562 926.339844 850.5625 C 927.125 849.777344 927.871094 848.957031 928.578125 848.097656 C 929.28125 847.234375 929.945312 846.34375 930.5625 845.417969 C 931.179688 844.496094 931.75 843.542969 932.273438 842.5625 C 932.796875 841.582031 933.273438 840.578125 933.699219 839.550781 C 934.125 838.523438 934.5 837.476562 934.820312 836.414062 C 935.144531 835.347656 935.414062 834.273438 935.628906 833.179688 C 935.847656 832.089844 936.011719 830.992188 936.121094 829.886719 C 936.226562 828.777344 936.28125 827.667969 936.28125 826.558594 C 936.28125 825.445312 936.226562 824.335938 936.121094 823.230469 C 936.011719 822.125 935.847656 821.023438 935.628906 819.933594 C 935.414062 818.84375 935.144531 817.765625 934.820312 816.703125 C 934.5 815.636719 934.125 814.59375 933.699219 813.566406 C 933.273438 812.539062 932.796875 811.535156 932.273438 810.554688 C 931.75 809.574219 931.179688 808.621094 930.5625 807.695312 C 929.945312 806.773438 929.28125 805.878906 928.578125 805.019531 C 927.871094 804.160156 927.125 803.335938 926.339844 802.550781 C 925.554688 801.765625 924.730469 801.019531 923.871094 800.3125 C 923.011719 799.609375 922.117188 798.945312 921.195312 798.328125 C 920.269531 797.710938 919.316406 797.140625 918.335938 796.617188 C 917.355469 796.09375 916.351562 795.617188 915.324219 795.191406 C 914.296875 794.765625 913.25 794.390625 912.1875 794.070312 C 911.125 793.746094 910.046875 793.476562 908.957031 793.261719 C 907.867188 793.042969 906.765625 792.878906 905.660156 792.769531 C 904.554688 792.660156 903.445312 792.609375 902.332031 792.609375 Z M 902.332031 792.609375 " fill-opacity="1" fill-rule="nonzero"/><path fill="#5271ff" d="M 673.441406 564.660156 C 672.328125 564.660156 671.21875 564.714844 670.109375 564.824219 C 669 564.933594 667.902344 565.097656 666.8125 565.3125 C 665.71875 565.53125 664.640625 565.800781 663.574219 566.125 C 662.511719 566.449219 661.464844 566.824219 660.4375 567.25 C 659.40625 567.675781 658.402344 568.152344 657.421875 568.675781 C 656.441406 569.203125 655.488281 569.773438 654.5625 570.394531 C 653.636719 571.011719 652.746094 571.675781 651.882812 572.382812 C 651.023438 573.089844 650.203125 573.835938 649.414062 574.625 C 648.628906 575.410156 647.882812 576.234375 647.175781 577.097656 C 646.472656 577.957031 645.8125 578.851562 645.195312 579.777344 C 644.574219 580.703125 644.003906 581.65625 643.480469 582.640625 C 642.957031 583.621094 642.484375 584.628906 642.058594 585.65625 C 641.632812 586.683594 641.261719 587.730469 640.941406 588.796875 C 640.617188 589.863281 640.347656 590.941406 640.132812 592.035156 C 639.917969 593.125 639.757812 594.226562 639.648438 595.332031 C 639.542969 596.441406 639.488281 597.550781 639.492188 598.664062 L 639.492188 639.550781 L 597.765625 639.550781 C 596.652344 639.550781 595.542969 639.605469 594.4375 639.71875 C 593.332031 639.828125 592.234375 639.988281 591.144531 640.207031 C 590.054688 640.425781 588.976562 640.695312 587.914062 641.019531 C 586.851562 641.34375 585.804688 641.714844 584.78125 642.140625 C 583.753906 642.566406 582.75 643.042969 581.769531 643.566406 C 580.789062 644.09375 579.839844 644.664062 578.914062 645.28125 C 577.988281 645.898438 577.097656 646.5625 576.238281 647.265625 C 575.382812 647.972656 574.558594 648.71875 573.773438 649.503906 C 572.988281 650.289062 572.242188 651.113281 571.539062 651.972656 C 570.832031 652.832031 570.171875 653.722656 569.554688 654.648438 C 568.9375 655.570312 568.367188 656.523438 567.84375 657.503906 C 567.320312 658.484375 566.84375 659.488281 566.417969 660.515625 C 565.996094 661.542969 565.621094 662.585938 565.296875 663.652344 C 564.976562 664.714844 564.707031 665.789062 564.488281 666.882812 C 564.273438 667.972656 564.109375 669.070312 564 670.175781 C 563.890625 671.28125 563.835938 672.390625 563.835938 673.5 C 563.835938 674.613281 563.890625 675.722656 564 676.828125 C 564.109375 677.933594 564.273438 679.03125 564.488281 680.121094 C 564.707031 681.210938 564.976562 682.289062 565.296875 683.351562 C 565.621094 684.417969 565.996094 685.460938 566.417969 686.488281 C 566.84375 687.515625 567.320312 688.519531 567.84375 689.5 C 568.367188 690.480469 568.9375 691.433594 569.554688 692.355469 C 570.171875 693.28125 570.832031 694.171875 571.539062 695.03125 C 572.242188 695.890625 572.988281 696.714844 573.773438 697.5 C 574.558594 698.285156 575.382812 699.03125 576.238281 699.738281 C 577.097656 700.441406 577.988281 701.105469 578.914062 701.722656 C 579.839844 702.339844 580.789062 702.910156 581.769531 703.4375 C 582.75 703.960938 583.753906 704.433594 584.78125 704.859375 C 585.804688 705.285156 586.851562 705.660156 587.914062 705.984375 C 588.976562 706.308594 590.054688 706.578125 591.144531 706.796875 C 592.234375 707.011719 593.332031 707.175781 594.4375 707.285156 C 595.542969 707.394531 596.652344 707.453125 597.765625 707.453125 L 647.398438 707.453125 C 649.363281 707.453125 651.324219 707.355469 653.277344 707.164062 C 655.234375 706.96875 657.175781 706.683594 659.101562 706.300781 C 661.03125 705.914062 662.933594 705.4375 664.8125 704.867188 C 666.695312 704.296875 668.542969 703.636719 670.355469 702.886719 C 672.171875 702.132812 673.945312 701.292969 675.679688 700.367188 C 677.410156 699.441406 679.09375 698.433594 680.730469 697.339844 C 682.363281 696.25 683.9375 695.082031 685.457031 693.835938 C 686.976562 692.585938 688.429688 691.269531 689.820312 689.878906 C 691.207031 688.492188 692.527344 687.039062 693.773438 685.519531 C 695.019531 684 696.1875 682.421875 697.28125 680.789062 C 698.371094 679.15625 699.382812 677.472656 700.308594 675.738281 C 701.234375 674.007812 702.074219 672.234375 702.824219 670.417969 C 703.578125 668.601562 704.238281 666.753906 704.808594 664.875 C 705.378906 662.996094 705.855469 661.089844 706.238281 659.164062 C 706.621094 657.238281 706.910156 655.296875 707.101562 653.339844 C 707.292969 651.382812 707.390625 649.425781 707.390625 647.460938 L 707.390625 598.664062 C 707.394531 597.550781 707.339844 596.441406 707.230469 595.332031 C 707.125 594.226562 706.964844 593.125 706.746094 592.035156 C 706.53125 590.941406 706.261719 589.863281 705.941406 588.796875 C 705.621094 587.730469 705.246094 586.683594 704.820312 585.65625 C 704.398438 584.628906 703.921875 583.621094 703.398438 582.640625 C 702.875 581.65625 702.304688 580.703125 701.6875 579.777344 C 701.070312 578.851562 700.410156 577.957031 699.703125 577.097656 C 699 576.234375 698.253906 575.410156 697.464844 574.625 C 696.679688 573.835938 695.855469 573.089844 694.996094 572.382812 C 694.136719 571.675781 693.242188 571.011719 692.320312 570.394531 C 691.394531 569.773438 690.441406 569.203125 689.460938 568.675781 C 688.476562 568.152344 687.472656 567.675781 686.445312 567.25 C 685.417969 566.824219 684.371094 566.449219 683.304688 566.125 C 682.242188 565.800781 681.164062 565.53125 680.070312 565.3125 C 678.980469 565.097656 677.878906 564.933594 676.773438 564.824219 C 675.664062 564.714844 674.554688 564.660156 673.441406 564.660156 Z M 673.441406 564.660156 " fill-opacity="1" fill-rule="nonzero"/><path fill="#5271ff" d="M 647.398438 792.609375 L 597.765625 792.609375 C 596.652344 792.605469 595.542969 792.660156 594.433594 792.769531 C 593.328125 792.875 592.226562 793.039062 591.136719 793.253906 C 590.046875 793.46875 588.96875 793.738281 587.902344 794.0625 C 586.835938 794.382812 585.789062 794.757812 584.761719 795.183594 C 583.734375 795.605469 582.730469 796.082031 581.746094 796.605469 C 580.765625 797.128906 579.8125 797.699219 578.886719 798.316406 C 577.960938 798.933594 577.070312 799.597656 576.207031 800.300781 C 575.347656 801.007812 574.523438 801.753906 573.738281 802.539062 C 572.949219 803.324219 572.203125 804.148438 571.496094 805.007812 C 570.789062 805.867188 570.128906 806.761719 569.507812 807.6875 C 568.890625 808.609375 568.320312 809.5625 567.792969 810.542969 C 567.269531 811.527344 566.792969 812.53125 566.367188 813.558594 C 565.941406 814.585938 565.566406 815.632812 565.246094 816.695312 C 564.921875 817.761719 564.652344 818.839844 564.433594 819.929688 C 564.21875 821.023438 564.054688 822.121094 563.945312 823.226562 C 563.835938 824.335938 563.78125 825.445312 563.78125 826.558594 C 563.78125 827.671875 563.835938 828.78125 563.945312 829.886719 C 564.054688 830.996094 564.21875 832.09375 564.433594 833.183594 C 564.652344 834.277344 564.921875 835.355469 565.246094 836.417969 C 565.566406 837.484375 565.941406 838.53125 566.367188 839.558594 C 566.792969 840.585938 567.269531 841.589844 567.792969 842.570312 C 568.320312 843.550781 568.890625 844.503906 569.507812 845.429688 C 570.128906 846.355469 570.789062 847.246094 571.496094 848.105469 C 572.203125 848.964844 572.949219 849.789062 573.738281 850.574219 C 574.523438 851.363281 575.347656 852.109375 576.207031 852.8125 C 577.070312 853.519531 577.960938 854.179688 578.886719 854.796875 C 579.8125 855.414062 580.765625 855.984375 581.746094 856.511719 C 582.730469 857.035156 583.734375 857.507812 584.761719 857.933594 C 585.789062 858.359375 586.835938 858.730469 587.902344 859.054688 C 588.96875 859.375 590.046875 859.644531 591.136719 859.863281 C 592.226562 860.078125 593.328125 860.238281 594.433594 860.347656 C 595.542969 860.457031 596.652344 860.507812 597.765625 860.507812 L 639.492188 860.507812 L 639.492188 901.78125 C 639.492188 902.894531 639.542969 904.003906 639.652344 905.109375 C 639.761719 906.214844 639.925781 907.3125 640.140625 908.40625 C 640.359375 909.496094 640.628906 910.574219 640.953125 911.636719 C 641.273438 912.699219 641.648438 913.746094 642.074219 914.773438 C 642.5 915.800781 642.976562 916.804688 643.5 917.785156 C 644.023438 918.765625 644.59375 919.71875 645.210938 920.644531 C 645.828125 921.566406 646.492188 922.460938 647.195312 923.320312 C 647.902344 924.179688 648.648438 925 649.433594 925.789062 C 650.21875 926.574219 651.042969 927.320312 651.902344 928.023438 C 652.761719 928.730469 653.652344 929.390625 654.578125 930.011719 C 655.503906 930.628906 656.457031 931.199219 657.4375 931.722656 C 658.417969 932.246094 659.421875 932.722656 660.449219 933.148438 C 661.476562 933.574219 662.519531 933.945312 663.585938 934.269531 C 664.648438 934.59375 665.726562 934.863281 666.816406 935.078125 C 667.90625 935.296875 669.007812 935.460938 670.113281 935.566406 C 671.21875 935.675781 672.328125 935.730469 673.441406 935.730469 C 674.550781 935.730469 675.660156 935.675781 676.769531 935.566406 C 677.875 935.457031 678.972656 935.296875 680.0625 935.078125 C 681.15625 934.863281 682.230469 934.59375 683.296875 934.269531 C 684.359375 933.945312 685.40625 933.574219 686.433594 933.148438 C 687.460938 932.722656 688.464844 932.246094 689.445312 931.722656 C 690.425781 931.199219 691.378906 930.628906 692.300781 930.007812 C 693.226562 929.390625 694.117188 928.730469 694.976562 928.023438 C 695.839844 927.320312 696.660156 926.574219 697.445312 925.789062 C 698.234375 925 698.980469 924.179688 699.683594 923.320312 C 700.390625 922.460938 701.050781 921.566406 701.667969 920.644531 C 702.285156 919.71875 702.859375 918.765625 703.382812 917.785156 C 703.90625 916.804688 704.382812 915.800781 704.804688 914.773438 C 705.230469 913.746094 705.605469 912.699219 705.929688 911.636719 C 706.25 910.574219 706.523438 909.496094 706.738281 908.40625 C 706.957031 907.3125 707.117188 906.214844 707.226562 905.109375 C 707.335938 904.003906 707.390625 902.894531 707.390625 901.78125 L 707.390625 852.585938 C 707.390625 850.621094 707.292969 848.660156 707.101562 846.707031 C 706.910156 844.75 706.621094 842.808594 706.238281 840.882812 C 705.855469 838.957031 705.378906 837.054688 704.808594 835.171875 C 704.238281 833.292969 703.574219 831.445312 702.824219 829.628906 C 702.070312 827.816406 701.234375 826.042969 700.308594 824.308594 C 699.378906 822.578125 698.371094 820.894531 697.28125 819.257812 C 696.1875 817.625 695.019531 816.050781 693.773438 814.53125 C 692.527344 813.011719 691.207031 811.558594 689.820312 810.171875 C 688.429688 808.78125 686.976562 807.464844 685.457031 806.21875 C 683.9375 804.972656 682.359375 803.800781 680.726562 802.710938 C 679.09375 801.621094 677.410156 800.609375 675.679688 799.683594 C 673.945312 798.757812 672.171875 797.921875 670.355469 797.167969 C 668.539062 796.417969 666.691406 795.757812 664.8125 795.1875 C 662.933594 794.617188 661.027344 794.140625 659.101562 793.757812 C 657.175781 793.375 655.234375 793.085938 653.277344 792.894531 C 651.324219 792.703125 649.363281 792.605469 647.398438 792.609375 Z M 647.398438 792.609375 " fill-opacity="1" fill-rule="nonzero"/><path fill="#5271ff" d="M 852.59375 707.398438 L 902.332031 707.398438 C 903.445312 707.398438 904.554688 707.34375 905.660156 707.234375 C 906.765625 707.125 907.867188 706.964844 908.957031 706.746094 C 910.046875 706.53125 911.125 706.257812 912.1875 705.9375 C 913.25 705.613281 914.296875 705.238281 915.324219 704.8125 C 916.351562 704.390625 917.355469 703.914062 918.335938 703.390625 C 919.316406 702.867188 920.269531 702.292969 921.195312 701.675781 C 922.117188 701.058594 923.011719 700.398438 923.871094 699.691406 C 924.730469 698.988281 925.554688 698.242188 926.339844 697.453125 C 927.125 696.667969 927.871094 695.847656 928.578125 694.984375 C 929.28125 694.125 929.945312 693.234375 930.5625 692.308594 C 931.179688 691.386719 931.75 690.433594 932.273438 689.453125 C 932.796875 688.472656 933.273438 687.46875 933.699219 686.441406 C 934.125 685.414062 934.5 684.367188 934.820312 683.304688 C 935.144531 682.238281 935.414062 681.164062 935.628906 680.070312 C 935.847656 678.980469 936.011719 677.882812 936.121094 676.777344 C 936.226562 675.667969 936.28125 674.558594 936.28125 673.449219 C 936.28125 672.335938 936.226562 671.226562 936.121094 670.121094 C 936.011719 669.015625 935.847656 667.914062 935.628906 666.824219 C 935.414062 665.734375 935.144531 664.65625 934.820312 663.59375 C 934.5 662.527344 934.125 661.484375 933.699219 660.457031 C 933.273438 659.429688 932.796875 658.425781 932.273438 657.445312 C 931.75 656.464844 931.179688 655.511719 930.5625 654.585938 C 929.945312 653.660156 929.28125 652.769531 928.578125 651.910156 C 927.871094 651.050781 927.125 650.226562 926.339844 649.441406 C 925.554688 648.65625 924.730469 647.910156 923.871094 647.203125 C 923.011719 646.5 922.117188 645.835938 921.195312 645.21875 C 920.269531 644.601562 919.316406 644.03125 918.335938 643.507812 C 917.355469 642.984375 916.351562 642.507812 915.324219 642.082031 C 914.296875 641.65625 913.25 641.28125 912.1875 640.960938 C 911.125 640.636719 910.046875 640.367188 908.957031 640.148438 C 907.867188 639.933594 906.765625 639.769531 905.660156 639.660156 C 904.554688 639.550781 903.445312 639.496094 902.332031 639.496094 L 860.5 639.496094 L 860.5 598.664062 C 860.5 597.550781 860.445312 596.441406 860.335938 595.335938 C 860.226562 594.230469 860.066406 593.132812 859.847656 592.039062 C 859.632812 590.949219 859.359375 589.875 859.039062 588.808594 C 858.714844 587.746094 858.339844 586.699219 857.917969 585.671875 C 857.492188 584.644531 857.015625 583.640625 856.492188 582.660156 C 855.96875 581.679688 855.398438 580.726562 854.777344 579.800781 C 854.160156 578.878906 853.5 577.984375 852.792969 577.125 C 852.089844 576.265625 851.34375 575.445312 850.554688 574.65625 C 849.769531 573.871094 848.949219 573.125 848.089844 572.421875 C 847.226562 571.714844 846.335938 571.054688 845.410156 570.4375 C 844.488281 569.816406 843.535156 569.246094 842.554688 568.722656 C 841.574219 568.199219 840.570312 567.722656 839.542969 567.296875 C 838.515625 566.871094 837.46875 566.5 836.40625 566.175781 C 835.339844 565.851562 834.265625 565.582031 833.171875 565.367188 C 832.082031 565.148438 830.984375 564.988281 829.878906 564.878906 C 828.769531 564.769531 827.660156 564.714844 826.550781 564.714844 C 825.4375 564.714844 824.328125 564.769531 823.222656 564.878906 C 822.117188 564.988281 821.015625 565.148438 819.925781 565.367188 C 818.835938 565.582031 817.757812 565.851562 816.695312 566.175781 C 815.628906 566.5 814.585938 566.871094 813.558594 567.296875 C 812.53125 567.722656 811.527344 568.199219 810.546875 568.722656 C 809.566406 569.246094 808.613281 569.816406 807.6875 570.4375 C 806.765625 571.054688 805.871094 571.714844 805.011719 572.421875 C 804.152344 573.125 803.328125 573.871094 802.542969 574.65625 C 801.757812 575.445312 801.011719 576.265625 800.304688 577.125 C 799.601562 577.984375 798.9375 578.878906 798.320312 579.800781 C 797.703125 580.726562 797.132812 581.679688 796.609375 582.660156 C 796.085938 583.640625 795.609375 584.644531 795.183594 585.671875 C 794.757812 586.699219 794.382812 587.746094 794.0625 588.808594 C 793.738281 589.875 793.46875 590.949219 793.253906 592.039062 C 793.035156 593.132812 792.871094 594.230469 792.761719 595.335938 C 792.652344 596.441406 792.601562 597.550781 792.601562 598.664062 L 792.601562 647.460938 C 792.601562 649.421875 792.699219 651.382812 792.894531 653.335938 C 793.085938 655.289062 793.375 657.230469 793.761719 659.15625 C 794.144531 661.082031 794.625 662.984375 795.195312 664.863281 C 795.765625 666.742188 796.429688 668.585938 797.179688 670.402344 C 797.933594 672.214844 798.773438 673.988281 799.699219 675.71875 C 800.628906 677.449219 801.636719 679.132812 802.730469 680.765625 C 803.820312 682.394531 804.988281 683.972656 806.234375 685.488281 C 807.484375 687.003906 808.800781 688.457031 810.191406 689.847656 C 811.578125 691.234375 813.03125 692.550781 814.550781 693.796875 C 816.070312 695.042969 817.644531 696.207031 819.277344 697.300781 C 820.910156 698.390625 822.59375 699.398438 824.328125 700.324219 C 826.058594 701.246094 827.832031 702.085938 829.644531 702.835938 C 831.460938 703.589844 833.308594 704.25 835.1875 704.820312 C 837.066406 705.386719 838.96875 705.863281 840.894531 706.246094 C 842.820312 706.628906 844.761719 706.917969 846.714844 707.109375 C 848.667969 707.300781 850.628906 707.398438 852.59375 707.398438 Z M 852.59375 707.398438 " fill-opacity="1" fill-rule="nonzero"/><path fill="#5271ff" d="M 755.535156 707.398438 L 744.601562 707.398438 C 743.433594 707.546875 742.273438 707.746094 741.121094 707.992188 C 739.96875 708.234375 738.828125 708.527344 737.703125 708.867188 C 736.574219 709.207031 735.460938 709.589844 734.363281 710.019531 C 733.269531 710.449219 732.191406 710.925781 731.132812 711.445312 C 730.074219 711.964844 729.042969 712.527344 728.03125 713.128906 C 727.019531 713.734375 726.035156 714.378906 725.078125 715.0625 C 724.117188 715.75 723.191406 716.472656 722.289062 717.234375 C 721.390625 717.996094 720.527344 718.792969 719.691406 719.625 C 718.859375 720.457031 718.0625 721.324219 717.300781 722.222656 C 716.539062 723.121094 715.816406 724.050781 715.128906 725.007812 C 714.445312 725.964844 713.800781 726.949219 713.195312 727.960938 C 712.589844 728.972656 712.027344 730.003906 711.507812 731.0625 C 710.988281 732.121094 710.515625 733.195312 710.082031 734.292969 C 709.652344 735.390625 709.265625 736.503906 708.929688 737.628906 C 708.589844 738.757812 708.296875 739.898438 708.050781 741.050781 C 707.804688 742.203125 707.609375 743.363281 707.457031 744.53125 L 707.457031 755.460938 C 707.609375 756.628906 707.804688 757.789062 708.050781 758.941406 C 708.296875 760.09375 708.589844 761.234375 708.929688 762.363281 C 709.269531 763.492188 709.652344 764.605469 710.085938 765.699219 C 710.515625 766.796875 710.992188 767.875 711.511719 768.929688 C 712.03125 769.988281 712.589844 771.023438 713.195312 772.035156 C 713.800781 773.046875 714.445312 774.03125 715.132812 774.988281 C 715.816406 775.945312 716.539062 776.875 717.300781 777.773438 C 718.0625 778.671875 718.859375 779.539062 719.695312 780.371094 C 720.527344 781.203125 721.394531 782 722.292969 782.761719 C 723.191406 783.523438 724.117188 784.25 725.078125 784.933594 C 726.035156 785.621094 727.019531 786.265625 728.03125 786.867188 C 729.042969 787.472656 730.078125 788.035156 731.132812 788.554688 C 732.191406 789.074219 733.269531 789.550781 734.363281 789.980469 C 735.460938 790.410156 736.574219 790.796875 737.703125 791.136719 C 738.828125 791.476562 739.96875 791.769531 741.121094 792.011719 C 742.273438 792.257812 743.433594 792.457031 744.601562 792.609375 L 755.535156 792.609375 C 756.703125 792.457031 757.863281 792.257812 759.015625 792.011719 C 760.167969 791.769531 761.304688 791.476562 762.433594 791.136719 C 763.5625 790.796875 764.675781 790.410156 765.769531 789.980469 C 766.867188 789.550781 767.945312 789.074219 769 788.554688 C 770.058594 788.035156 771.09375 787.472656 772.101562 786.867188 C 773.113281 786.261719 774.097656 785.617188 775.054688 784.933594 C 776.015625 784.246094 776.941406 783.523438 777.839844 782.761719 C 778.738281 782 779.605469 781.203125 780.4375 780.371094 C 781.269531 779.535156 782.066406 778.671875 782.828125 777.773438 C 783.589844 776.875 784.3125 775.945312 785 774.988281 C 785.683594 774.027344 786.328125 773.042969 786.933594 772.03125 C 787.535156 771.023438 788.097656 769.988281 788.617188 768.929688 C 789.136719 767.871094 789.613281 766.796875 790.042969 765.699219 C 790.472656 764.601562 790.859375 763.492188 791.195312 762.363281 C 791.535156 761.234375 791.828125 760.09375 792.074219 758.941406 C 792.320312 757.789062 792.515625 756.628906 792.667969 755.460938 L 792.667969 744.53125 C 792.515625 743.363281 792.320312 742.203125 792.074219 741.050781 C 791.828125 739.898438 791.535156 738.757812 791.195312 737.632812 C 790.855469 736.503906 790.472656 735.390625 790.042969 734.296875 C 789.609375 733.199219 789.136719 732.121094 788.617188 731.066406 C 788.097656 730.007812 787.535156 728.972656 786.933594 727.964844 C 786.328125 726.953125 785.683594 725.96875 784.996094 725.011719 C 784.3125 724.050781 783.589844 723.125 782.828125 722.226562 C 782.066406 721.328125 781.269531 720.460938 780.4375 719.628906 C 779.601562 718.796875 778.738281 718 777.839844 717.238281 C 776.941406 716.476562 776.011719 715.753906 775.054688 715.066406 C 774.097656 714.382812 773.113281 713.738281 772.101562 713.132812 C 771.089844 712.527344 770.058594 711.96875 769 711.449219 C 767.941406 710.929688 766.867188 710.453125 765.769531 710.023438 C 764.671875 709.59375 763.5625 709.207031 762.433594 708.867188 C 761.304688 708.53125 760.164062 708.238281 759.015625 707.992188 C 757.863281 707.746094 756.703125 707.546875 755.535156 707.398438 Z M 755.535156 707.398438 " fill-opacity="1" fill-rule="nonzero"/><g clip-path="url(#dc10f293c3)"><path fill="#5271ff" d="M 537.1875 826.558594 C 537.1875 825.445312 537.132812 824.335938 537.023438 823.230469 C 536.914062 822.125 536.75 821.023438 536.535156 819.933594 C 536.316406 818.84375 536.046875 817.765625 535.726562 816.703125 C 535.402344 815.636719 535.027344 814.59375 534.601562 813.566406 C 534.175781 812.539062 533.703125 811.535156 533.175781 810.554688 C 532.652344 809.574219 532.082031 808.621094 531.464844 807.695312 C 530.847656 806.769531 530.183594 805.878906 529.480469 805.019531 C 528.773438 804.160156 528.027344 803.335938 527.242188 802.550781 C 526.457031 801.765625 525.632812 801.019531 524.773438 800.3125 C 523.914062 799.609375 523.023438 798.945312 522.097656 798.328125 C 521.171875 797.710938 520.222656 797.140625 519.238281 796.617188 C 518.257812 796.09375 517.253906 795.617188 516.226562 795.191406 C 515.199219 794.765625 514.15625 794.390625 513.089844 794.070312 C 512.027344 793.746094 510.949219 793.476562 509.859375 793.261719 C 508.769531 793.042969 507.671875 792.878906 506.5625 792.769531 C 505.457031 792.660156 504.347656 792.609375 503.234375 792.609375 C 502.125 792.609375 501.015625 792.660156 499.910156 792.769531 C 498.800781 792.878906 497.703125 793.042969 496.613281 793.261719 C 495.523438 793.476562 494.445312 793.746094 493.382812 794.070312 C 492.316406 794.390625 491.269531 794.765625 490.242188 795.191406 C 489.214844 795.617188 488.210938 796.09375 487.230469 796.617188 C 486.25 797.140625 485.300781 797.710938 484.375 798.328125 C 483.449219 798.945312 482.558594 799.609375 481.699219 800.3125 C 480.839844 801.019531 480.015625 801.765625 479.230469 802.550781 C 478.445312 803.335938 477.699219 804.160156 476.992188 805.019531 C 476.285156 805.878906 475.625 806.769531 475.007812 807.695312 C 474.390625 808.621094 473.820312 809.574219 473.292969 810.554688 C 472.769531 811.535156 472.296875 812.539062 471.871094 813.566406 C 471.445312 814.59375 471.070312 815.636719 470.746094 816.703125 C 470.425781 817.765625 470.15625 818.84375 469.9375 819.933594 C 469.722656 821.023438 469.558594 822.125 469.449219 823.230469 C 469.339844 824.335938 469.285156 825.445312 469.285156 826.558594 C 469.285156 827.9375 469.375 829.316406 469.550781 830.683594 C 470.65625 834.546875 471.828125 838.378906 473.09375 842.175781 C 473.527344 843.011719 473.996094 843.828125 474.496094 844.625 C 475 845.425781 475.53125 846.199219 476.097656 846.953125 C 476.664062 847.707031 477.261719 848.433594 477.886719 849.140625 C 478.515625 849.84375 479.171875 850.519531 479.855469 851.167969 C 480.535156 851.816406 481.246094 852.4375 481.980469 853.027344 C 482.714844 853.617188 483.472656 854.175781 484.253906 854.703125 C 485.035156 855.230469 485.839844 855.722656 486.660156 856.183594 C 487.484375 856.640625 488.324219 857.066406 489.179688 857.457031 C 490.039062 857.847656 490.910156 858.203125 491.800781 858.519531 C 492.6875 858.835938 493.585938 859.117188 494.496094 859.359375 C 495.40625 859.601562 496.328125 859.804688 497.253906 859.972656 C 498.179688 860.136719 499.113281 860.265625 500.054688 860.355469 C 500.992188 860.441406 501.929688 860.492188 502.875 860.5 C 503.816406 860.511719 504.757812 860.480469 505.695312 860.414062 C 506.636719 860.34375 507.574219 860.238281 508.503906 860.09375 C 509.433594 859.945312 510.359375 859.761719 511.273438 859.539062 C 512.1875 859.316406 513.09375 859.054688 513.988281 858.753906 C 514.882812 858.457031 515.761719 858.121094 516.628906 857.75 C 517.492188 857.378906 518.34375 856.972656 519.175781 856.527344 C 520.007812 856.085938 520.820312 855.609375 521.613281 855.101562 C 522.402344 854.589844 523.175781 854.046875 523.921875 853.472656 C 524.667969 852.898438 525.390625 852.296875 526.085938 851.660156 C 526.785156 851.027344 527.453125 850.363281 528.097656 849.675781 C 528.738281 848.984375 529.351562 848.269531 529.933594 847.527344 C 530.515625 846.785156 531.066406 846.023438 531.582031 845.234375 C 532.101562 844.449219 532.585938 843.640625 533.039062 842.816406 C 533.488281 841.988281 533.90625 841.144531 534.285156 840.28125 C 534.667969 839.417969 535.011719 838.542969 535.320312 837.652344 C 535.628906 836.761719 535.898438 835.859375 536.132812 834.945312 C 536.367188 834.035156 536.558594 833.113281 536.714844 832.183594 C 536.871094 831.253906 536.988281 830.320312 537.070312 829.378906 C 537.148438 828.441406 537.1875 827.5 537.1875 826.558594 Z M 537.1875 826.558594 " fill-opacity="1" fill-rule="nonzero"/></g><g clip-path="url(#25679e276a)"><path fill="#5271ff" d="M 537.1875 673.449219 C 537.1875 672.503906 537.148438 671.566406 537.070312 670.625 C 536.992188 669.6875 536.875 668.75 536.71875 667.820312 C 536.5625 666.894531 536.367188 665.972656 536.136719 665.058594 C 535.902344 664.144531 535.632812 663.242188 535.324219 662.351562 C 535.015625 661.460938 534.671875 660.585938 534.292969 659.722656 C 533.910156 658.859375 533.496094 658.015625 533.042969 657.1875 C 532.59375 656.359375 532.109375 655.550781 531.589844 654.765625 C 531.070312 653.976562 530.519531 653.214844 529.9375 652.472656 C 529.355469 651.730469 528.742188 651.015625 528.101562 650.324219 C 527.460938 649.636719 526.792969 648.972656 526.09375 648.335938 C 525.398438 647.703125 524.675781 647.097656 523.929688 646.523438 C 523.179688 645.949219 522.410156 645.40625 521.617188 644.898438 C 520.828125 644.386719 520.015625 643.910156 519.183594 643.46875 C 518.351562 643.023438 517.5 642.617188 516.632812 642.246094 C 515.769531 641.875 514.886719 641.539062 513.996094 641.238281 C 513.101562 640.941406 512.195312 640.679688 511.28125 640.457031 C 510.363281 640.234375 509.441406 640.046875 508.507812 639.902344 C 507.578125 639.753906 506.644531 639.648438 505.703125 639.578125 C 504.761719 639.511719 503.820312 639.480469 502.878906 639.492188 C 501.9375 639.5 500.996094 639.550781 500.058594 639.640625 C 499.121094 639.726562 498.1875 639.855469 497.257812 640.019531 C 496.332031 640.1875 495.410156 640.390625 494.5 640.632812 C 493.589844 640.875 492.691406 641.15625 491.804688 641.472656 C 490.914062 641.789062 490.042969 642.144531 489.183594 642.535156 C 488.328125 642.925781 487.484375 643.347656 486.664062 643.808594 C 485.839844 644.269531 485.039062 644.761719 484.257812 645.289062 C 483.476562 645.816406 482.71875 646.375 481.984375 646.964844 C 481.246094 647.554688 480.539062 648.175781 479.855469 648.824219 C 479.171875 649.472656 478.515625 650.148438 477.890625 650.851562 C 477.261719 651.558594 476.664062 652.285156 476.097656 653.039062 C 475.53125 653.792969 475 654.566406 474.496094 655.367188 C 473.996094 656.164062 473.527344 656.980469 473.09375 657.816406 C 471.828125 661.613281 470.617188 665.445312 469.550781 669.308594 C 469.375 670.683594 469.285156 672.0625 469.285156 673.449219 C 469.285156 674.558594 469.339844 675.667969 469.449219 676.777344 C 469.558594 677.882812 469.722656 678.980469 469.9375 680.070312 C 470.15625 681.164062 470.425781 682.238281 470.746094 683.304688 C 471.070312 684.367188 471.445312 685.414062 471.871094 686.441406 C 472.296875 687.46875 472.769531 688.472656 473.292969 689.453125 C 473.820312 690.433594 474.390625 691.386719 475.007812 692.308594 C 475.625 693.234375 476.285156 694.125 476.992188 694.984375 C 477.699219 695.847656 478.445312 696.667969 479.230469 697.453125 C 480.015625 698.242188 480.839844 698.988281 481.699219 699.691406 C 482.558594 700.398438 483.449219 701.058594 484.375 701.675781 C 485.300781 702.292969 486.25 702.867188 487.230469 703.390625 C 488.210938 703.914062 489.214844 704.390625 490.242188 704.8125 C 491.269531 705.238281 492.316406 705.613281 493.382812 705.9375 C 494.445312 706.257812 495.523438 706.53125 496.613281 706.746094 C 497.703125 706.964844 498.800781 707.125 499.910156 707.234375 C 501.015625 707.34375 502.125 707.398438 503.234375 707.398438 C 504.347656 707.398438 505.457031 707.34375 506.5625 707.234375 C 507.671875 707.125 508.769531 706.964844 509.859375 706.746094 C 510.949219 706.53125 512.027344 706.257812 513.089844 705.9375 C 514.15625 705.613281 515.199219 705.238281 516.226562 704.8125 C 517.253906 704.390625 518.257812 703.914062 519.238281 703.390625 C 520.222656 702.867188 521.171875 702.292969 522.097656 701.675781 C 523.023438 701.058594 523.914062 700.398438 524.773438 699.691406 C 525.632812 698.988281 526.457031 698.242188 527.242188 697.453125 C 528.027344 696.667969 528.773438 695.847656 529.480469 694.984375 C 530.183594 694.125 530.847656 693.234375 531.464844 692.308594 C 532.082031 691.386719 532.652344 690.433594 533.175781 689.453125 C 533.703125 688.472656 534.175781 687.46875 534.601562 686.441406 C 535.027344 685.414062 535.402344 684.367188 535.726562 683.304688 C 536.046875 682.238281 536.316406 681.164062 536.535156 680.070312 C 536.75 678.980469 536.914062 677.882812 537.023438 676.777344 C 537.132812 675.667969 537.1875 674.558594 537.1875 673.449219 Z M 537.1875 673.449219 " fill-opacity="1" fill-rule="nonzero"/></g><g clip-path="url(#03f907a745)"><path fill="#5271ff" d="M 1030.703125 826.558594 C 1030.699219 825.476562 1030.644531 824.394531 1030.539062 823.316406 C 1030.429688 822.242188 1030.273438 821.171875 1030.0625 820.109375 C 1029.851562 819.046875 1029.59375 817.996094 1029.28125 816.960938 C 1028.972656 815.921875 1028.613281 814.902344 1028.207031 813.902344 C 1027.796875 812.898438 1027.34375 811.917969 1026.84375 810.957031 C 1026.339844 810 1025.792969 809.066406 1025.203125 808.15625 C 1024.613281 807.25 1023.980469 806.375 1023.304688 805.527344 C 1022.628906 804.679688 1021.917969 803.867188 1021.164062 803.089844 C 1020.414062 802.3125 1019.625 801.570312 1018.800781 800.867188 C 1017.976562 800.164062 1017.125 799.503906 1016.238281 798.882812 C 1015.351562 798.261719 1014.4375 797.683594 1013.496094 797.148438 C 1012.550781 796.617188 1011.585938 796.128906 1010.597656 795.6875 C 1009.609375 795.246094 1008.601562 794.851562 1007.578125 794.507812 C 1006.550781 794.160156 1005.511719 793.867188 1004.457031 793.621094 C 1003.402344 793.375 1002.339844 793.179688 1001.265625 793.035156 C 1000.191406 792.894531 999.117188 792.800781 998.035156 792.761719 C 996.953125 792.71875 995.871094 792.730469 994.789062 792.792969 C 993.710938 792.855469 992.632812 792.96875 991.566406 793.136719 C 990.496094 793.300781 989.433594 793.515625 988.386719 793.785156 C 987.335938 794.050781 986.304688 794.367188 985.285156 794.730469 C 984.265625 795.097656 983.265625 795.511719 982.285156 795.972656 C 981.308594 796.433594 980.351562 796.941406 979.421875 797.492188 C 978.492188 798.046875 977.589844 798.640625 976.714844 799.28125 C 975.839844 799.921875 975 800.597656 974.191406 801.320312 C 973.382812 802.039062 972.609375 802.792969 971.871094 803.589844 C 971.136719 804.382812 970.441406 805.207031 969.78125 806.066406 C 969.125 806.929688 968.507812 807.816406 967.9375 808.738281 C 967.363281 809.65625 966.839844 810.597656 966.355469 811.570312 C 965.875 812.539062 965.4375 813.527344 965.050781 814.539062 C 964.664062 815.550781 964.328125 816.578125 964.039062 817.621094 C 963.75 818.664062 963.507812 819.71875 963.320312 820.785156 C 963.132812 821.851562 962.996094 822.921875 962.910156 824 L 962.910156 829.113281 C 963.046875 830.945312 963.332031 832.75 963.761719 834.535156 C 964.191406 836.320312 964.761719 838.054688 965.472656 839.746094 C 966.183594 841.4375 967.027344 843.0625 968.003906 844.617188 C 968.976562 846.171875 970.070312 847.636719 971.285156 849.011719 C 972.496094 850.390625 973.8125 851.660156 975.230469 852.824219 C 976.652344 853.988281 978.152344 855.03125 979.742188 855.949219 C 981.328125 856.871094 982.980469 857.65625 984.695312 858.308594 C 986.410156 858.960938 988.167969 859.46875 989.964844 859.835938 C 991.765625 860.203125 993.578125 860.421875 995.414062 860.496094 C 997.246094 860.566406 999.074219 860.492188 1000.894531 860.265625 C 1002.714844 860.042969 1004.507812 859.675781 1006.269531 859.160156 C 1008.03125 858.644531 1009.738281 857.992188 1011.394531 857.199219 C 1013.050781 856.410156 1014.628906 855.488281 1016.136719 854.441406 C 1017.644531 853.394531 1019.054688 852.230469 1020.371094 850.953125 C 1021.691406 849.675781 1022.894531 848.300781 1023.992188 846.828125 C 1025.085938 845.355469 1026.054688 843.804688 1026.898438 842.175781 C 1028.160156 838.378906 1029.332031 834.546875 1030.453125 830.683594 C 1030.617188 829.3125 1030.703125 827.9375 1030.703125 826.558594 Z M 1030.703125 826.558594 " fill-opacity="1" fill-rule="nonzero"/></g><g clip-path="url(#f5917e727a)"><path fill="#5271ff" d="M 826.550781 962.570312 C 825.382812 962.582031 824.222656 962.652344 823.0625 962.78125 C 821.90625 962.914062 820.757812 963.101562 819.617188 963.351562 C 818.480469 963.597656 817.355469 963.90625 816.246094 964.269531 C 815.140625 964.632812 814.054688 965.054688 812.992188 965.53125 C 811.925781 966.003906 810.890625 966.535156 809.878906 967.117188 C 808.871094 967.699219 807.894531 968.332031 806.949219 969.015625 C 806.003906 969.699219 805.097656 970.429688 804.226562 971.207031 C 803.359375 971.984375 802.53125 972.804688 801.746094 973.667969 C 800.960938 974.527344 800.222656 975.429688 799.53125 976.367188 C 798.839844 977.304688 798.199219 978.277344 797.605469 979.28125 C 797.015625 980.285156 796.476562 981.316406 795.988281 982.375 C 795.503906 983.4375 795.074219 984.519531 794.699219 985.621094 C 794.324219 986.726562 794.007812 987.847656 793.75 988.984375 C 793.492188 990.121094 793.289062 991.265625 793.148438 992.421875 C 793.007812 993.582031 792.929688 994.742188 792.90625 995.90625 C 792.886719 997.074219 792.925781 998.238281 793.023438 999.398438 C 793.121094 1000.558594 793.28125 1001.714844 793.5 1002.859375 C 793.714844 1004.003906 793.992188 1005.136719 794.328125 1006.253906 C 794.660156 1007.367188 795.050781 1008.464844 795.5 1009.542969 C 795.945312 1010.617188 796.445312 1011.667969 797.003906 1012.695312 C 797.558594 1013.71875 798.164062 1014.714844 798.820312 1015.675781 C 799.480469 1016.636719 800.183594 1017.566406 800.9375 1018.453125 C 801.691406 1019.34375 802.488281 1020.191406 803.328125 1021 C 804.167969 1021.808594 805.050781 1022.570312 805.96875 1023.289062 C 806.886719 1024.003906 807.839844 1024.671875 808.828125 1025.292969 C 809.816406 1025.910156 810.832031 1026.476562 811.878906 1026.992188 C 812.925781 1027.507812 813.996094 1027.964844 815.089844 1028.367188 C 816.183594 1028.773438 817.292969 1029.121094 818.425781 1029.410156 C 819.554688 1029.699219 820.695312 1029.929688 821.847656 1030.101562 C 823 1030.273438 824.160156 1030.382812 825.324219 1030.4375 C 826.488281 1030.488281 827.652344 1030.480469 828.816406 1030.414062 C 829.980469 1030.347656 831.136719 1030.21875 832.289062 1030.035156 C 835.136719 1029.195312 837.972656 1028.328125 840.78125 1027.371094 C 841.652344 1026.96875 842.503906 1026.53125 843.335938 1026.058594 C 844.171875 1025.582031 844.980469 1025.074219 845.773438 1024.53125 C 846.5625 1023.988281 847.328125 1023.414062 848.070312 1022.804688 C 848.8125 1022.199219 849.523438 1021.558594 850.210938 1020.890625 C 850.898438 1020.222656 851.558594 1019.527344 852.1875 1018.804688 C 852.8125 1018.082031 853.410156 1017.332031 853.976562 1016.558594 C 854.539062 1015.78125 855.070312 1014.984375 855.570312 1014.164062 C 856.066406 1013.347656 856.527344 1012.507812 856.953125 1011.648438 C 857.382812 1010.789062 857.769531 1009.914062 858.121094 1009.023438 C 858.472656 1008.132812 858.789062 1007.226562 859.0625 1006.308594 C 859.339844 1005.390625 859.574219 1004.464844 859.773438 1003.527344 C 859.96875 1002.585938 860.125 1001.644531 860.242188 1000.691406 C 860.359375 999.738281 860.4375 998.785156 860.472656 997.828125 C 860.507812 996.871094 860.503906 995.910156 860.460938 994.953125 C 860.414062 993.996094 860.328125 993.042969 860.203125 992.09375 C 860.078125 991.140625 859.910156 990.199219 859.707031 989.261719 C 859.5 988.328125 859.253906 987.402344 858.972656 986.484375 C 858.6875 985.570312 858.363281 984.667969 858.003906 983.78125 C 857.644531 982.890625 857.246094 982.019531 856.8125 981.167969 C 856.378906 980.3125 855.910156 979.476562 855.402344 978.664062 C 854.898438 977.847656 854.359375 977.054688 853.789062 976.285156 C 853.214844 975.515625 852.613281 974.773438 851.976562 974.054688 C 851.339844 973.339844 850.675781 972.648438 849.984375 971.988281 C 849.289062 971.324219 848.570312 970.695312 847.824219 970.09375 C 847.078125 969.492188 846.304688 968.925781 845.511719 968.386719 C 844.714844 967.851562 843.898438 967.351562 843.0625 966.886719 C 842.222656 966.417969 841.367188 965.988281 840.492188 965.597656 C 839.621094 965.203125 838.730469 964.847656 837.828125 964.527344 C 836.921875 964.210938 836.007812 963.929688 835.078125 963.6875 C 834.152344 963.449219 833.214844 963.246094 832.269531 963.085938 C 831.324219 962.921875 830.375 962.800781 829.421875 962.71875 C 828.464844 962.640625 827.507812 962.597656 826.550781 962.597656 Z M 826.550781 962.570312 " fill-opacity="1" fill-rule="nonzero"/></g><g clip-path="url(#e0a7a80ac8)"><path fill="#5271ff" d="M 673.441406 962.570312 C 672.480469 962.570312 671.523438 962.609375 670.566406 962.691406 C 669.609375 962.769531 668.65625 962.890625 667.710938 963.050781 C 666.765625 963.210938 665.828125 963.410156 664.898438 963.648438 C 663.96875 963.890625 663.050781 964.167969 662.144531 964.488281 C 661.238281 964.804688 660.347656 965.160156 659.472656 965.554688 C 658.597656 965.945312 657.742188 966.375 656.902344 966.84375 C 656.0625 967.308594 655.246094 967.808594 654.449219 968.34375 C 653.652344 968.878906 652.878906 969.449219 652.132812 970.050781 C 651.382812 970.648438 650.660156 971.28125 649.964844 971.941406 C 649.269531 972.605469 648.605469 973.296875 647.96875 974.015625 C 647.332031 974.734375 646.726562 975.476562 646.15625 976.246094 C 645.582031 977.015625 645.042969 977.808594 644.535156 978.625 C 644.03125 979.441406 643.558594 980.277344 643.125 981.132812 C 642.6875 981.988281 642.292969 982.859375 641.929688 983.75 C 641.570312 984.636719 641.246094 985.542969 640.960938 986.457031 C 640.675781 987.375 640.433594 988.300781 640.226562 989.238281 C 640.019531 990.175781 639.855469 991.121094 639.726562 992.074219 C 639.601562 993.023438 639.515625 993.980469 639.472656 994.9375 C 639.425781 995.898438 639.421875 996.855469 639.460938 997.816406 C 639.496094 998.773438 639.574219 999.730469 639.691406 1000.683594 C 639.808594 1001.636719 639.964844 1002.582031 640.164062 1003.519531 C 640.363281 1004.460938 640.597656 1005.386719 640.875 1006.308594 C 641.152344 1007.226562 641.46875 1008.132812 641.820312 1009.023438 C 642.175781 1009.917969 642.566406 1010.792969 642.992188 1011.652344 C 643.421875 1012.511719 643.882812 1013.351562 644.382812 1014.171875 C 644.882812 1014.992188 645.414062 1015.789062 645.980469 1016.5625 C 646.546875 1017.335938 647.144531 1018.085938 647.777344 1018.8125 C 648.40625 1019.535156 649.066406 1020.230469 649.753906 1020.898438 C 650.445312 1021.566406 651.160156 1022.203125 651.902344 1022.8125 C 652.648438 1023.417969 653.414062 1023.996094 654.207031 1024.535156 C 655 1025.078125 655.8125 1025.585938 656.648438 1026.058594 C 657.480469 1026.53125 658.335938 1026.96875 659.207031 1027.371094 C 662.015625 1028.304688 664.851562 1029.167969 667.703125 1030.035156 C 668.859375 1030.234375 670.019531 1030.371094 671.191406 1030.449219 C 672.359375 1030.527344 673.53125 1030.546875 674.703125 1030.503906 C 675.875 1030.460938 677.042969 1030.359375 678.203125 1030.195312 C 679.363281 1030.03125 680.515625 1029.808594 681.652344 1029.523438 C 682.789062 1029.242188 683.910156 1028.902344 685.011719 1028.5 C 686.117188 1028.101562 687.195312 1027.648438 688.25 1027.136719 C 689.304688 1026.625 690.332031 1026.0625 691.328125 1025.445312 C 692.328125 1024.828125 693.289062 1024.160156 694.21875 1023.445312 C 695.144531 1022.726562 696.035156 1021.964844 696.882812 1021.15625 C 697.730469 1020.347656 698.535156 1019.496094 699.296875 1018.605469 C 700.058594 1017.710938 700.773438 1016.785156 701.4375 1015.816406 C 702.101562 1014.851562 702.714844 1013.851562 703.273438 1012.824219 C 703.835938 1011.792969 704.34375 1010.738281 704.792969 1009.65625 C 705.246094 1008.574219 705.640625 1007.472656 705.976562 1006.347656 C 706.316406 1005.226562 706.59375 1004.089844 706.8125 1002.9375 C 707.035156 1001.785156 707.195312 1000.625 707.292969 999.457031 C 707.390625 998.289062 707.429688 997.117188 707.410156 995.945312 C 707.386719 994.773438 707.304688 993.605469 707.164062 992.441406 C 707.019531 991.277344 706.816406 990.121094 706.554688 988.980469 C 706.292969 987.835938 705.972656 986.710938 705.59375 985.601562 C 705.214844 984.492188 704.777344 983.402344 704.285156 982.339844 C 703.792969 981.273438 703.25 980.238281 702.648438 979.230469 C 702.050781 978.222656 701.402344 977.246094 700.699219 976.308594 C 700 975.367188 699.253906 974.464844 698.460938 973.601562 C 697.667969 972.738281 696.832031 971.917969 695.953125 971.140625 C 695.074219 970.363281 694.15625 969.636719 693.203125 968.953125 C 692.25 968.273438 691.261719 967.640625 690.242188 967.0625 C 689.222656 966.480469 688.175781 965.957031 687.101562 965.484375 C 686.03125 965.015625 684.933594 964.601562 683.816406 964.242188 C 682.699219 963.886719 681.566406 963.585938 680.421875 963.34375 C 679.273438 963.105469 678.117188 962.925781 676.949219 962.804688 C 675.78125 962.683594 674.613281 962.625 673.441406 962.625 Z M 673.441406 962.570312 " fill-opacity="1" fill-rule="nonzero"/></g><g clip-path="url(#4f9bd667ac)"><path fill="#5271ff" d="M 826.550781 537.421875 C 827.507812 537.417969 828.464844 537.378906 829.417969 537.296875 C 830.375 537.214844 831.324219 537.089844 832.265625 536.929688 C 833.210938 536.765625 834.148438 536.5625 835.074219 536.320312 C 836 536.078125 836.917969 535.800781 837.820312 535.480469 C 838.722656 535.160156 839.613281 534.804688 840.484375 534.410156 C 841.359375 534.015625 842.214844 533.585938 843.050781 533.117188 C 843.886719 532.652344 844.703125 532.148438 845.496094 531.613281 C 846.289062 531.078125 847.058594 530.507812 847.804688 529.90625 C 848.550781 529.308594 849.273438 528.675781 849.964844 528.011719 C 850.65625 527.351562 851.320312 526.660156 851.953125 525.941406 C 852.589844 525.226562 853.191406 524.480469 853.761719 523.710938 C 854.335938 522.941406 854.871094 522.152344 855.375 521.335938 C 855.878906 520.519531 856.347656 519.6875 856.78125 518.832031 C 857.214844 517.976562 857.613281 517.105469 857.972656 516.21875 C 858.332031 515.332031 858.65625 514.429688 858.9375 513.515625 C 859.222656 512.597656 859.464844 511.671875 859.671875 510.738281 C 859.875 509.800781 860.039062 508.859375 860.167969 507.90625 C 860.292969 506.957031 860.375 506.003906 860.421875 505.046875 C 860.464844 504.089844 860.46875 503.132812 860.433594 502.175781 C 860.394531 501.21875 860.320312 500.265625 860.203125 499.3125 C 860.085938 498.363281 859.925781 497.417969 859.730469 496.480469 C 859.53125 495.542969 859.296875 494.617188 859.019531 493.699219 C 858.746094 492.78125 858.429688 491.875 858.078125 490.984375 C 857.726562 490.09375 857.335938 489.21875 856.910156 488.363281 C 856.484375 487.503906 856.023438 486.664062 855.523438 485.847656 C 855.027344 485.027344 854.496094 484.230469 853.929688 483.457031 C 853.367188 482.683594 852.769531 481.933594 852.140625 481.210938 C 851.511719 480.488281 850.855469 479.792969 850.167969 479.125 C 849.480469 478.457031 848.765625 477.820312 848.027344 477.210938 C 847.285156 476.605469 846.519531 476.027344 845.730469 475.488281 C 844.941406 474.945312 844.128906 474.4375 843.296875 473.960938 C 842.464844 473.488281 841.613281 473.050781 840.742188 472.648438 C 837.9375 471.761719 835.105469 470.875 832.25 469.984375 C 831.09375 469.792969 829.933594 469.660156 828.765625 469.585938 C 827.597656 469.511719 826.429688 469.5 825.261719 469.546875 C 824.09375 469.59375 822.929688 469.703125 821.773438 469.871094 C 820.613281 470.039062 819.46875 470.265625 818.335938 470.550781 C 817.199219 470.839844 816.085938 471.183594 814.984375 471.585938 C 813.886719 471.984375 812.8125 472.441406 811.761719 472.957031 C 810.710938 473.46875 809.6875 474.035156 808.695312 474.652344 C 807.703125 475.269531 806.742188 475.9375 805.820312 476.65625 C 804.894531 477.375 804.011719 478.136719 803.167969 478.945312 C 802.320312 479.753906 801.519531 480.605469 800.761719 481.496094 C 800.007812 482.390625 799.296875 483.316406 798.636719 484.28125 C 797.972656 485.246094 797.363281 486.242188 796.808594 487.273438 C 796.25 488.300781 795.746094 489.355469 795.296875 490.433594 C 794.847656 491.515625 794.453125 492.613281 794.117188 493.734375 C 793.785156 494.855469 793.507812 495.992188 793.289062 497.140625 C 793.070312 498.289062 792.914062 499.445312 792.8125 500.613281 C 792.714844 501.777344 792.675781 502.945312 792.699219 504.113281 C 792.722656 505.285156 792.804688 506.449219 792.945312 507.609375 C 793.089844 508.769531 793.292969 509.921875 793.554688 511.0625 C 793.8125 512.203125 794.132812 513.324219 794.511719 514.433594 C 794.890625 515.539062 795.324219 516.625 795.8125 517.6875 C 796.304688 518.75 796.847656 519.78125 797.441406 520.789062 C 798.039062 521.796875 798.6875 522.769531 799.382812 523.707031 C 800.082031 524.644531 800.824219 525.546875 801.613281 526.410156 C 802.40625 527.273438 803.238281 528.089844 804.113281 528.867188 C 804.988281 529.644531 805.902344 530.371094 806.851562 531.054688 C 807.800781 531.738281 808.785156 532.367188 809.800781 532.949219 C 810.816406 533.527344 811.859375 534.054688 812.929688 534.527344 C 814 535 815.089844 535.417969 816.203125 535.777344 C 817.316406 536.136719 818.445312 536.4375 819.589844 536.679688 C 820.734375 536.921875 821.886719 537.105469 823.050781 537.230469 C 824.214844 537.355469 825.378906 537.417969 826.550781 537.421875 Z M 826.550781 537.421875 " fill-opacity="1" fill-rule="nonzero"/></g><g clip-path="url(#1695cd3281)"><path fill="#5271ff" d="M 673.441406 537.421875 C 674.613281 537.421875 675.78125 537.359375 676.949219 537.238281 C 678.113281 537.117188 679.269531 536.933594 680.417969 536.691406 C 681.5625 536.453125 682.695312 536.152344 683.8125 535.792969 C 684.929688 535.433594 686.023438 535.019531 687.09375 534.546875 C 688.167969 534.074219 689.214844 533.546875 690.234375 532.96875 C 691.25 532.386719 692.238281 531.757812 693.191406 531.074219 C 694.144531 530.390625 695.058594 529.660156 695.9375 528.882812 C 696.8125 528.105469 697.648438 527.285156 698.441406 526.421875 C 699.234375 525.558594 699.980469 524.65625 700.679688 523.714844 C 701.378906 522.773438 702.027344 521.800781 702.625 520.792969 C 703.222656 519.785156 703.765625 518.746094 704.257812 517.683594 C 704.746094 516.617188 705.183594 515.53125 705.558594 514.421875 C 705.9375 513.3125 706.257812 512.1875 706.519531 511.042969 C 706.78125 509.902344 706.984375 508.746094 707.125 507.585938 C 707.265625 506.421875 707.347656 505.253906 707.371094 504.082031 C 707.390625 502.910156 707.351562 501.738281 707.25 500.570312 C 707.152344 499.402344 706.992188 498.242188 706.769531 497.089844 C 706.550781 495.941406 706.269531 494.804688 705.933594 493.679688 C 705.59375 492.558594 705.199219 491.457031 704.746094 490.375 C 704.296875 489.292969 703.789062 488.238281 703.226562 487.210938 C 702.667969 486.179688 702.054688 485.183594 701.386719 484.21875 C 700.722656 483.253906 700.011719 482.324219 699.25 481.433594 C 698.488281 480.539062 697.683594 479.691406 696.835938 478.882812 C 695.984375 478.074219 695.097656 477.3125 694.167969 476.59375 C 693.242188 475.878906 692.277344 475.210938 691.28125 474.59375 C 690.285156 473.980469 689.257812 473.414062 688.203125 472.90625 C 687.148438 472.394531 686.070312 471.941406 684.96875 471.542969 C 683.863281 471.144531 682.746094 470.804688 681.605469 470.519531 C 680.46875 470.238281 679.320312 470.015625 678.160156 469.851562 C 677 469.6875 675.832031 469.585938 674.660156 469.542969 C 673.488281 469.5 672.320312 469.519531 671.148438 469.597656 C 669.980469 469.675781 668.816406 469.8125 667.664062 470.011719 C 664.8125 470.855469 661.980469 471.742188 659.167969 472.675781 C 658.300781 473.078125 657.449219 473.519531 656.617188 473.992188 C 655.785156 474.46875 654.976562 474.976562 654.1875 475.519531 C 653.398438 476.066406 652.636719 476.640625 651.894531 477.25 C 651.15625 477.855469 650.445312 478.496094 649.757812 479.164062 C 649.070312 479.832031 648.417969 480.53125 647.789062 481.253906 C 647.164062 481.976562 646.566406 482.726562 646.003906 483.5 C 645.441406 484.277344 644.910156 485.074219 644.414062 485.894531 C 643.917969 486.710938 643.460938 487.550781 643.035156 488.410156 C 642.609375 489.265625 642.222656 490.140625 641.871094 491.035156 C 641.519531 491.925781 641.207031 492.828125 640.933594 493.746094 C 640.660156 494.664062 640.425781 495.589844 640.226562 496.527344 C 640.03125 497.464844 639.875 498.410156 639.761719 499.359375 C 639.644531 500.3125 639.570312 501.265625 639.535156 502.222656 C 639.5 503.179688 639.503906 504.136719 639.550781 505.09375 C 639.59375 506.050781 639.683594 507.003906 639.808594 507.953125 C 639.933594 508.902344 640.101562 509.84375 640.308594 510.777344 C 640.511719 511.714844 640.757812 512.640625 641.042969 513.554688 C 641.328125 514.46875 641.648438 515.367188 642.011719 516.257812 C 642.371094 517.144531 642.769531 518.011719 643.203125 518.867188 C 643.636719 519.71875 644.105469 520.554688 644.613281 521.367188 C 645.117188 522.183594 645.65625 522.972656 646.226562 523.742188 C 646.796875 524.507812 647.402344 525.253906 648.035156 525.96875 C 648.671875 526.6875 649.335938 527.375 650.027344 528.035156 C 650.722656 528.699219 651.441406 529.328125 652.1875 529.929688 C 652.933594 530.527344 653.703125 531.097656 654.5 531.632812 C 655.292969 532.164062 656.109375 532.667969 656.945312 533.132812 C 657.78125 533.597656 658.636719 534.027344 659.507812 534.421875 C 660.382812 534.816406 661.269531 535.171875 662.175781 535.488281 C 663.078125 535.808594 663.992188 536.085938 664.917969 536.328125 C 665.847656 536.570312 666.78125 536.769531 667.726562 536.933594 C 668.667969 537.09375 669.617188 537.214844 670.574219 537.296875 C 671.527344 537.378906 672.484375 537.421875 673.441406 537.421875 Z M 673.441406 537.421875 " fill-opacity="1" fill-rule="nonzero"/></g><g clip-path="url(#bbccbe53a8)"><path fill="#5271ff" d="M 962.910156 670.890625 L 962.910156 676.003906 C 962.996094 677.082031 963.132812 678.15625 963.320312 679.222656 C 963.507812 680.289062 963.75 681.34375 964.039062 682.386719 C 964.328125 683.429688 964.664062 684.457031 965.050781 685.46875 C 965.4375 686.476562 965.875 687.46875 966.355469 688.4375 C 966.839844 689.40625 967.363281 690.351562 967.9375 691.269531 C 968.507812 692.1875 969.125 693.078125 969.78125 693.9375 C 970.441406 694.796875 971.136719 695.625 971.871094 696.417969 C 972.609375 697.210938 973.382812 697.96875 974.191406 698.6875 C 975 699.40625 975.839844 700.085938 976.714844 700.726562 C 977.589844 701.363281 978.492188 701.960938 979.421875 702.511719 C 980.351562 703.066406 981.308594 703.570312 982.285156 704.035156 C 983.265625 704.496094 984.265625 704.90625 985.285156 705.273438 C 986.304688 705.640625 987.335938 705.957031 988.386719 706.222656 C 989.433594 706.488281 990.496094 706.707031 991.566406 706.871094 C 992.632812 707.035156 993.710938 707.152344 994.789062 707.214844 C 995.871094 707.277344 996.953125 707.285156 998.035156 707.246094 C 999.117188 707.207031 1000.191406 707.113281 1001.265625 706.96875 C 1002.339844 706.824219 1003.402344 706.628906 1004.457031 706.386719 C 1005.511719 706.140625 1006.550781 705.84375 1007.578125 705.5 C 1008.601562 705.152344 1009.609375 704.761719 1010.597656 704.320312 C 1011.585938 703.878906 1012.550781 703.390625 1013.496094 702.855469 C 1014.4375 702.324219 1015.351562 701.746094 1016.238281 701.125 C 1017.125 700.503906 1017.976562 699.839844 1018.800781 699.136719 C 1019.625 698.433594 1020.414062 697.695312 1021.164062 696.917969 C 1021.917969 696.136719 1022.628906 695.324219 1023.304688 694.480469 C 1023.980469 693.632812 1024.613281 692.753906 1025.203125 691.847656 C 1025.792969 690.941406 1026.339844 690.007812 1026.84375 689.046875 C 1027.34375 688.089844 1027.796875 687.109375 1028.207031 686.105469 C 1028.613281 685.101562 1028.972656 684.082031 1029.28125 683.046875 C 1029.59375 682.007812 1029.851562 680.957031 1030.0625 679.898438 C 1030.273438 678.835938 1030.429688 677.765625 1030.539062 676.6875 C 1030.644531 675.609375 1030.699219 674.53125 1030.703125 673.449219 C 1030.703125 672.0625 1030.617188 670.683594 1030.453125 669.308594 C 1029.332031 665.445312 1028.160156 661.613281 1026.898438 657.816406 C 1026.050781 656.191406 1025.082031 654.640625 1023.984375 653.171875 C 1022.890625 651.699219 1021.683594 650.328125 1020.363281 649.050781 C 1019.046875 647.777344 1017.632812 646.617188 1016.128906 645.570312 C 1014.621094 644.527344 1013.039062 643.609375 1011.386719 642.816406 C 1009.730469 642.027344 1008.023438 641.375 1006.261719 640.863281 C 1004.5 640.351562 1002.710938 639.984375 1000.890625 639.757812 C 999.070312 639.535156 997.242188 639.460938 995.410156 639.535156 C 993.578125 639.609375 991.765625 639.828125 989.96875 640.195312 C 988.171875 640.5625 986.414062 641.070312 984.699219 641.722656 C 982.988281 642.375 981.335938 643.160156 979.75 644.078125 C 978.160156 645 976.660156 646.039062 975.242188 647.203125 C 973.824219 648.363281 972.507812 649.632812 971.292969 651.007812 C 970.082031 652.386719 968.988281 653.851562 968.011719 655.402344 C 967.039062 656.957031 966.195312 658.578125 965.480469 660.265625 C 964.769531 661.957031 964.195312 663.691406 963.765625 665.476562 C 963.335938 667.257812 963.050781 669.0625 962.910156 670.890625 Z M 962.910156 670.890625 " fill-opacity="1" fill-rule="nonzero"/></g></svg>